<svg xmlns="http://www.w3.org/2000/svg" xmlns:xlink="http://www.w3.org/1999/xlink" contentStyleType="text/css" data-diagram-type="CLASS" height="616px" preserveAspectRatio="none" style="width:2038px;height:616px;background:#FFFFFF;" version="1.1" viewBox="0 0 2038 616" width="2038px" zoomAndPan="magnify"><defs/><g><!--cluster ctlearn--><g class="cluster" data-entity="ctlearn" data-source-line="3" data-uid="ent0003" id="cluster_ctlearn"><path d="M8.5,6 L65.1035,6 A3.75,3.75 0 0 1 67.6035,8.5 L74.6035,28.2969 L2028.5,28.2969 A2.5,2.5 0 0 1 2031,30.7969 L2031,588.5 A2.5,2.5 0 0 1 2028.5,591 L8.5,591 A2.5,2.5 0 0 1 6,588.5 L6,8.5 A2.5,2.5 0 0 1 8.5,6" fill="none" style="stroke:#000000;stroke-width:1.5;"/><line style="stroke:#000000;stroke-width:1.5;" x1="6" x2="74.6035" y1="28.2969" y2="28.2969"/><text fill="#000000" font-family="sans-serif" font-size="14" font-weight="bold" lengthAdjust="spacing" textLength="55.6035" x="10" y="20.9951">ctlearn</text></g><!--cluster core--><g class="cluster" data-entity="core" data-source-line="3" data-uid="ent0004" id="cluster_core"><path d="M1469.5,49 L1504.8164,49 A3.75,3.75 0 0 1 1507.3164,51.5 L1514.3164,71.2969 L2004.5,71.2969 A2.5,2.5 0 0 1 2007,73.7969 L2007,564.5 A2.5,2.5 0 0 1 2004.5,567 L1469.5,567 A2.5,2.5 0 0 1 1467,564.5 L1467,51.5 A2.5,2.5 0 0 1 1469.5,49" fill="none" style="stroke:#000000;stroke-width:1.5;"/><line style="stroke:#000000;stroke-width:1.5;" x1="1467" x2="1514.3164" y1="71.2969" y2="71.2969"/><text fill="#000000" font-family="sans-serif" font-size="14" font-weight="bold" lengthAdjust="spacing" textLength="34.3164" x="1471" y="63.9951">core</text></g><!--cluster model--><g class="cluster" data-entity="model" data-source-line="3" data-uid="ent0005" id="cluster_model"><path d="M1777.5,157 L1827.0215,157 A3.75,3.75 0 0 1 1829.5215,159.5 L1836.5215,179.2969 L1980.5,179.2969 A2.5,2.5 0 0 1 1983,181.7969 L1983,540.5 A2.5,2.5 0 0 1 1980.5,543 L1777.5,543 A2.5,2.5 0 0 1 1775,540.5 L1775,159.5 A2.5,2.5 0 0 1 1777.5,157" fill="none" style="stroke:#000000;stroke-width:1.5;"/><line style="stroke:#000000;stroke-width:1.5;" x1="1775" x2="1836.5215" y1="179.2969" y2="179.2969"/><text fill="#000000" font-family="sans-serif" font-size="14" font-weight="bold" lengthAdjust="spacing" textLength="48.5215" x="1779" y="171.9951">model</text></g><!--cluster loader--><g class="cluster" data-entity="loader" data-source-line="7" data-uid="ent0007" id="cluster_loader"><path d="M1493.5,92 L1544.7852,92 A3.75,3.75 0 0 1 1547.2852,94.5 L1554.2852,114.2969 L1748.5,114.2969 A2.5,2.5 0 0 1 1751,116.7969 L1751,351.5 A2.5,2.5 0 0 1 1748.5,354 L1493.5,354 A2.5,2.5 0 0 1 1491,351.5 L1491,94.5 A2.5,2.5 0 0 1 1493.5,92" fill="none" style="stroke:#000000;stroke-width:1.5;"/><line style="stroke:#000000;stroke-width:1.5;" x1="1491" x2="1554.2852" y1="114.2969" y2="114.2969"/><text fill="#000000" font-family="sans-serif" font-size="14" font-weight="bold" lengthAdjust="spacing" textLength="50.2852" x="1495" y="106.9951">loader</text></g><!--cluster tools--><g class="cluster" data-entity="tools" data-source-line="19" data-uid="ent0009" id="cluster_tools"><path d="M32.5,114 L72.5605,114 A3.75,3.75 0 0 1 75.0605,116.5 L82.0605,136.2969 L1440.5,136.2969 A2.5,2.5 0 0 1 1443,138.7969 L1443,524 A2.5,2.5 0 0 1 1440.5,526.5 L32.5,526.5 A2.5,2.5 0 0 1 30,524 L30,116.5 A2.5,2.5 0 0 1 32.5,114" fill="none" style="stroke:#000000;stroke-width:1.5;"/><line style="stroke:#000000;stroke-width:1.5;" x1="30" x2="82.0605" y1="136.2969" y2="136.2969"/><text fill="#000000" font-family="sans-serif" font-size="14" font-weight="bold" lengthAdjust="spacing" textLength="39.0605" x="34" y="128.9951">tools</text></g><!--cluster base_train_model--><g class="cluster" data-entity="base_train_model" data-source-line="19" data-uid="ent0010" id="cluster_base_train_model"><path d="M1206.5,173.5 L1345.1279,173.5 A3.75,3.75 0 0 1 1347.6279,176 L1354.6279,195.7969 L1401.5,195.7969 A2.5,2.5 0 0 1 1404,198.2969 L1404,270 A2.5,2.5 0 0 1 1401.5,272.5 L1206.5,272.5 A2.5,2.5 0 0 1 1204,270 L1204,176 A2.5,2.5 0 0 1 1206.5,173.5" fill="none" style="stroke:#000000;stroke-width:1.5;"/><line style="stroke:#000000;stroke-width:1.5;" x1="1204" x2="1354.6279" y1="195.7969" y2="195.7969"/><text fill="#000000" font-family="sans-serif" font-size="14" font-weight="bold" lengthAdjust="spacing" textLength="137.6279" x="1208" y="188.4951">base_train_model</text></g><!--cluster ctlearn_enum--><g class="cluster" data-entity="ctlearn_enum" data-source-line="21" data-uid="ent0012" id="cluster_ctlearn_enum"><path d="M1004.5,157 L1112.1201,157 A3.75,3.75 0 0 1 1114.6201,159.5 L1121.6201,179.2969 L1177.5,179.2969 A2.5,2.5 0 0 1 1180,181.7969 L1180,286.5 A2.5,2.5 0 0 1 1177.5,289 L1004.5,289 A2.5,2.5 0 0 1 1002,286.5 L1002,159.5 A2.5,2.5 0 0 1 1004.5,157" fill="none" style="stroke:#000000;stroke-width:1.5;"/><line style="stroke:#000000;stroke-width:1.5;" x1="1002" x2="1121.6201" y1="179.2969" y2="179.2969"/><text fill="#000000" font-family="sans-serif" font-size="14" font-weight="bold" lengthAdjust="spacing" textLength="106.6201" x="1006" y="171.9951">ctlearn_enum</text></g><!--cluster train_keras_model--><g class="cluster" data-entity="train_keras_model" data-source-line="25" data-uid="ent0015" id="cluster_train_keras_model"><path d="M782.5,403.5 L976.1299,403.5 A3.75,3.75 0 0 1 978.6299,406 L985.6299,425.7969 L1150.5,425.7969 A2.5,2.5 0 0 1 1153,428.2969 L1153,500 A2.5,2.5 0 0 1 1150.5,502.5 L782.5,502.5 A2.5,2.5 0 0 1 780,500 L780,406 A2.5,2.5 0 0 1 782.5,403.5" fill="none" style="stroke:#000000;stroke-width:1.5;"/><line style="stroke:#000000;stroke-width:1.5;" x1="780" x2="985.6299" y1="425.7969" y2="425.7969"/><text fill="#000000" font-family="sans-serif" font-size="14" font-weight="bold" lengthAdjust="spacing" textLength="192.6299" x="784" y="418.4951">keras.train_keras_model</text></g><!--cluster predict_LST1--><g class="cluster" data-entity="predict_LST1" data-source-line="29" data-uid="ent0018" id="cluster_predict_LST1"><path d="M782.5,173.5 L885.0273,173.5 A3.75,3.75 0 0 1 887.5273,176 L894.5273,195.7969 L975.5,195.7969 A2.5,2.5 0 0 1 978,198.2969 L978,270 A2.5,2.5 0 0 1 975.5,272.5 L782.5,272.5 A2.5,2.5 0 0 1 780,270 L780,176 A2.5,2.5 0 0 1 782.5,173.5" fill="none" style="stroke:#000000;stroke-width:1.5;"/><line style="stroke:#000000;stroke-width:1.5;" x1="780" x2="894.5273" y1="195.7969" y2="195.7969"/><text fill="#000000" font-family="sans-serif" font-size="14" font-weight="bold" lengthAdjust="spacing" textLength="101.5273" x="784" y="188.4951">predict_LST1</text></g><!--cluster predict_model--><g class="cluster" data-entity="predict_model" data-source-line="38" data-uid="ent0021" id="cluster_predict_model"><path d="M244.5,173.5 L357.2539,173.5 A3.75,3.75 0 0 1 359.7539,176 L366.7539,195.7969 L753.5,195.7969 A2.5,2.5 0 0 1 756,198.2969 L756,500 A2.5,2.5 0 0 1 753.5,502.5 L244.5,502.5 A2.5,2.5 0 0 1 242,500 L242,176 A2.5,2.5 0 0 1 244.5,173.5" fill="none" style="stroke:#000000;stroke-width:1.5;"/><line style="stroke:#000000;stroke-width:1.5;" x1="242" x2="366.7539" y1="195.7969" y2="195.7969"/><text fill="#000000" font-family="sans-serif" font-size="14" font-weight="bold" lengthAdjust="spacing" textLength="111.7539" x="246" y="188.4951">predict_model</text></g><!--cluster train_pytorch_model--><g class="cluster" data-entity="train_pytorch_model" data-source-line="44" data-uid="ent0026" id="cluster_train_pytorch_model"><path d="M1179.5,403.5 L1407.4053,403.5 A3.75,3.75 0 0 1 1409.9053,406 L1416.9053,425.7969 L1416.5,425.7969 A2.5,2.5 0 0 1 1419,428.2969 L1419,500 A2.5,2.5 0 0 1 1416.5,502.5 L1179.5,502.5 A2.5,2.5 0 0 1 1177,500 L1177,406 A2.5,2.5 0 0 1 1179.5,403.5" fill="none" style="stroke:#000000;stroke-width:1.5;"/><line style="stroke:#000000;stroke-width:1.5;" x1="1177" x2="1416.9053" y1="425.7969" y2="425.7969"/><text fill="#000000" font-family="sans-serif" font-size="14" font-weight="bold" lengthAdjust="spacing" textLength="226.9053" x="1181" y="418.4951">pytorch.train_pytorch_model</text></g><!--cluster train_model--><g class="cluster" data-entity="train_model" data-source-line="46" data-uid="ent0028" id="cluster_train_model"><path d="M56.5,173.5 L150.8311,173.5 A3.75,3.75 0 0 1 153.3311,176 L160.3311,195.7969 L215.5,195.7969 A2.5,2.5 0 0 1 218,198.2969 L218,270 A2.5,2.5 0 0 1 215.5,272.5 L56.5,272.5 A2.5,2.5 0 0 1 54,270 L54,176 A2.5,2.5 0 0 1 56.5,173.5" fill="none" style="stroke:#000000;stroke-width:1.5;"/><line style="stroke:#000000;stroke-width:1.5;" x1="54" x2="160.3311" y1="195.7969" y2="195.7969"/><text fill="#000000" font-family="sans-serif" font-size="14" font-weight="bold" lengthAdjust="spacing" textLength="93.3311" x="58" y="188.4951">train_model</text></g><!--class CTLearnModel--><g class="entity" data-entity="CTLearnModel" data-source-line="3" data-uid="ent0002" id="entity_CTLearnModel"><rect fill="#F1F1F1" height="80.5938" rx="2.5" ry="2.5" style="stroke:#181818;stroke-width:0.5;" width="131.9824" x="1813" y="192"/><ellipse cx="1828" cy="208" fill="#ADD1B2" rx="11" ry="11" style="stroke:#181818;stroke-width:1;"/><path d="M1830.9688,213.6406 Q1830.3906,213.9375 1829.75,214.0781 Q1829.1094,214.2344 1828.4063,214.2344 Q1825.9063,214.2344 1824.5781,212.5938 Q1823.2656,210.9375 1823.2656,207.8125 Q1823.2656,204.6875 1824.5781,203.0313 Q1825.9063,201.375 1828.4063,201.375 Q1829.1094,201.375 1829.75,201.5313 Q1830.4063,201.6875 1830.9688,201.9844 L1830.9688,204.7031 Q1830.3438,204.125 1829.75,203.8594 Q1829.1563,203.5781 1828.5313,203.5781 Q1827.1875,203.5781 1826.5,204.6563 Q1825.8125,205.7188 1825.8125,207.8125 Q1825.8125,209.9063 1826.5,210.9844 Q1827.1875,212.0469 1828.5313,212.0469 Q1829.1563,212.0469 1829.75,211.7813 Q1830.3438,211.5 1830.9688,210.9219 L1830.9688,213.6406 Z " fill="#000000"/><text fill="#000000" font-family="sans-serif" font-size="14" lengthAdjust="spacing" textLength="99.9824" x="1842" y="212.8467">CTLearnModel</text><line style="stroke:#181818;stroke-width:0.5;" x1="1814" x2="1943.9824" y1="224" y2="224"/><text fill="#000000" font-family="sans-serif" font-size="14" lengthAdjust="spacing" textLength="109.5527" x="1819" y="240.9951">attention: None</text><text fill="#000000" font-family="sans-serif" font-size="14" lengthAdjust="spacing" textLength="109.5527" x="1819" y="257.292">attention: None</text><line style="stroke:#181818;stroke-width:0.5;" x1="1814" x2="1943.9824" y1="264.5938" y2="264.5938"/></g><!--class LoadedModel--><g class="entity" data-entity="LoadedModel" data-source-line="31" data-uid="ent0019" id="entity_LoadedModel"><rect fill="#F1F1F1" height="129.4844" rx="2.5" ry="2.5" style="stroke:#181818;stroke-width:0.5;" width="176.4932" x="1791" y="398"/><ellipse cx="1829.0076" cy="414" fill="#ADD1B2" rx="11" ry="11" style="stroke:#181818;stroke-width:1;"/><path d="M1831.9763,419.6406 Q1831.3982,419.9375 1830.7576,420.0781 Q1830.1169,420.2344 1829.4138,420.2344 Q1826.9138,420.2344 1825.5857,418.5938 Q1824.2732,416.9375 1824.2732,413.8125 Q1824.2732,410.6875 1825.5857,409.0313 Q1826.9138,407.375 1829.4138,407.375 Q1830.1169,407.375 1830.7576,407.5313 Q1831.4138,407.6875 1831.9763,407.9844 L1831.9763,410.7031 Q1831.3513,410.125 1830.7576,409.8594 Q1830.1638,409.5781 1829.5388,409.5781 Q1828.1951,409.5781 1827.5076,410.6563 Q1826.8201,411.7188 1826.8201,413.8125 Q1826.8201,415.9063 1827.5076,416.9844 Q1828.1951,418.0469 1829.5388,418.0469 Q1830.1638,418.0469 1830.7576,417.7813 Q1831.3513,417.5 1831.9763,416.9219 L1831.9763,419.6406 Z " fill="#000000"/><text fill="#000000" font-family="sans-serif" font-size="14" lengthAdjust="spacing" textLength="93.3652" x="1848.1204" y="418.8467">LoadedModel</text><line style="stroke:#181818;stroke-width:0.5;" x1="1792" x2="1966.4932" y1="430" y2="430"/><text fill="#000000" font-family="sans-serif" font-size="14" lengthAdjust="spacing" textLength="89.2842" x="1797" y="446.9951">model: None</text><text fill="#000000" font-family="sans-serif" font-size="14" lengthAdjust="spacing" textLength="164.4932" x="1797" y="463.292">backbone_model: None</text><text fill="#000000" font-family="sans-serif" font-size="14" lengthAdjust="spacing" textLength="123.8262" x="1797" y="479.5889">input_layer: None</text><text fill="#000000" font-family="sans-serif" font-size="14" lengthAdjust="spacing" textLength="83.7061" x="1797" y="495.8857">logits: None</text><text fill="#000000" font-family="sans-serif" font-size="14" lengthAdjust="spacing" textLength="89.2842" x="1797" y="512.1826">model: None</text><line style="stroke:#181818;stroke-width:0.5;" x1="1792" x2="1966.4932" y1="519.4844" y2="519.4844"/></g><!--class DLDataLoader--><g class="entity" data-entity="DLDataLoader" data-source-line="7" data-uid="ent0006" id="entity_DLDataLoader"><rect fill="#F1F1F1" height="210.9688" rx="2.5" ry="2.5" style="stroke:#181818;stroke-width:0.5;" width="227.4209" x="1507.5" y="127"/><ellipse cx="1566.8564" cy="143" fill="#ADD1B2" rx="11" ry="11" style="stroke:#181818;stroke-width:1;"/><path d="M1569.8252,148.6406 Q1569.2471,148.9375 1568.6064,149.0781 Q1567.9658,149.2344 1567.2627,149.2344 Q1564.7627,149.2344 1563.4346,147.5938 Q1562.1221,145.9375 1562.1221,142.8125 Q1562.1221,139.6875 1563.4346,138.0313 Q1564.7627,136.375 1567.2627,136.375 Q1567.9658,136.375 1568.6064,136.5313 Q1569.2627,136.6875 1569.8252,136.9844 L1569.8252,139.7031 Q1569.2002,139.125 1568.6064,138.8594 Q1568.0127,138.5781 1567.3877,138.5781 Q1566.0439,138.5781 1565.3564,139.6563 Q1564.6689,140.7188 1564.6689,142.8125 Q1564.6689,144.9063 1565.3564,145.9844 Q1566.0439,147.0469 1567.3877,147.0469 Q1568.0127,147.0469 1568.6064,146.7813 Q1569.2002,146.5 1569.8252,145.9219 L1569.8252,148.6406 Z " fill="#000000"/><text fill="#000000" font-family="sans-serif" font-size="14" lengthAdjust="spacing" textLength="100.208" x="1587.3564" y="147.8467">DLDataLoader</text><line style="stroke:#181818;stroke-width:0.5;" x1="1508.5" x2="1733.9209" y1="159" y2="159"/><text fill="#000000" font-family="sans-serif" font-size="14" lengthAdjust="spacing" textLength="147.875" x="1513.5" y="175.9951">DLDataReader: None</text><text fill="#000000" font-family="sans-serif" font-size="14" lengthAdjust="spacing" textLength="94.835" x="1513.5" y="192.292">indices: None</text><text fill="#000000" font-family="sans-serif" font-size="14" lengthAdjust="spacing" textLength="82.4551" x="1513.5" y="208.5889">tasks: None</text><text fill="#000000" font-family="sans-serif" font-size="14" lengthAdjust="spacing" textLength="119.3623" x="1513.5" y="224.8857">batch_size: None</text><text fill="#000000" font-family="sans-serif" font-size="14" lengthAdjust="spacing" textLength="140.3965" x="1513.5" y="241.1826">random_seed: None</text><text fill="#000000" font-family="sans-serif" font-size="14" lengthAdjust="spacing" textLength="215.4209" x="1513.5" y="257.4795">stack_telescope_images: None</text><text fill="#000000" font-family="sans-serif" font-size="14" lengthAdjust="spacing" textLength="164.6641" x="1513.5" y="273.7764">sort_by_intensity: None</text><text fill="#000000" font-family="sans-serif" font-size="14" lengthAdjust="spacing" textLength="130.9492" x="1513.5" y="290.0732">input_shape: None</text><text fill="#000000" font-family="sans-serif" font-size="14" lengthAdjust="spacing" textLength="130.9492" x="1513.5" y="306.3701">input_shape: None</text><text fill="#000000" font-family="sans-serif" font-size="14" lengthAdjust="spacing" textLength="130.9492" x="1513.5" y="322.667">input_shape: None</text><line style="stroke:#181818;stroke-width:0.5;" x1="1508.5" x2="1733.9209" y1="329.9688" y2="329.9688"/></g><!--class TrainCTLearnModel--><g class="entity" data-entity="TrainCTLearnModel" data-source-line="19" data-uid="ent0008" id="entity_TrainCTLearnModel"><rect fill="#F1F1F1" height="48" rx="2.5" ry="2.5" style="stroke:#181818;stroke-width:0.5;" width="167.6318" x="1220" y="208.5"/><ellipse cx="1235" cy="224.5" fill="#ADD1B2" rx="11" ry="11" style="stroke:#181818;stroke-width:1;"/><path d="M1237.9688,230.1406 Q1237.3906,230.4375 1236.75,230.5781 Q1236.1094,230.7344 1235.4063,230.7344 Q1232.9063,230.7344 1231.5781,229.0938 Q1230.2656,227.4375 1230.2656,224.3125 Q1230.2656,221.1875 1231.5781,219.5313 Q1232.9063,217.875 1235.4063,217.875 Q1236.1094,217.875 1236.75,218.0313 Q1237.4063,218.1875 1237.9688,218.4844 L1237.9688,221.2031 Q1237.3438,220.625 1236.75,220.3594 Q1236.1563,220.0781 1235.5313,220.0781 Q1234.1875,220.0781 1233.5,221.1563 Q1232.8125,222.2188 1232.8125,224.3125 Q1232.8125,226.4063 1233.5,227.4844 Q1234.1875,228.5469 1235.5313,228.5469 Q1236.1563,228.5469 1236.75,228.2813 Q1237.3438,228 1237.9688,227.4219 L1237.9688,230.1406 Z " fill="#000000"/><text fill="#000000" font-family="sans-serif" font-size="14" lengthAdjust="spacing" textLength="135.6318" x="1249" y="229.3467">TrainCTLearnModel</text><line style="stroke:#181818;stroke-width:0.5;" x1="1221" x2="1386.6318" y1="240.5" y2="240.5"/><line style="stroke:#181818;stroke-width:0.5;" x1="1221" x2="1386.6318" y1="248.5" y2="248.5"/></g><!--class FrameworkType--><g class="entity" data-entity="FrameworkType" data-source-line="21" data-uid="ent0011" id="entity_FrameworkType"><rect fill="#F1F1F1" height="80.5938" rx="2.5" ry="2.5" style="stroke:#181818;stroke-width:0.5;" width="144.8545" x="1018.5" y="192"/><ellipse cx="1033.5" cy="208" fill="#EB937F" rx="11" ry="11" style="stroke:#181818;stroke-width:1;"/><path d="M1037.6094,214 L1029.8906,214 L1029.8906,201.6094 L1037.6094,201.6094 L1037.6094,203.7656 L1032.3438,203.7656 L1032.3438,206.4375 L1037.1094,206.4375 L1037.1094,208.5938 L1032.3438,208.5938 L1032.3438,211.8438 L1037.6094,211.8438 L1037.6094,214 Z " fill="#000000"/><text fill="#000000" font-family="sans-serif" font-size="14" lengthAdjust="spacing" textLength="112.8545" x="1047.5" y="212.8467">FrameworkType</text><line style="stroke:#181818;stroke-width:0.5;" x1="1019.5" x2="1162.3545" y1="224" y2="224"/><text fill="#000000" font-family="sans-serif" font-size="14" lengthAdjust="spacing" text-decoration="underline" textLength="64.292" x="1024.5" y="240.9951">KERAS: 1</text><text fill="#000000" font-family="sans-serif" font-size="14" lengthAdjust="spacing" text-decoration="underline" textLength="84.6699" x="1024.5" y="257.292">PYTORCH: 2</text><line style="stroke:#181818;stroke-width:0.5;" x1="1019.5" x2="1162.3545" y1="264.5938" y2="264.5938"/></g><!--class TqdmProgressBar--><g class="entity" data-entity="TqdmProgressBar" data-source-line="25" data-uid="ent0013" id="entity_TqdmProgressBar"><rect fill="#F1F1F1" height="48" rx="2.5" ry="2.5" style="stroke:#181818;stroke-width:0.5;" width="156.5098" x="979.5" y="438.5"/><ellipse cx="994.5" cy="454.5" fill="#ADD1B2" rx="11" ry="11" style="stroke:#181818;stroke-width:1;"/><path d="M997.4688,460.1406 Q996.8906,460.4375 996.25,460.5781 Q995.6094,460.7344 994.9063,460.7344 Q992.4063,460.7344 991.0781,459.0938 Q989.7656,457.4375 989.7656,454.3125 Q989.7656,451.1875 991.0781,449.5313 Q992.4063,447.875 994.9063,447.875 Q995.6094,447.875 996.25,448.0313 Q996.9063,448.1875 997.4688,448.4844 L997.4688,451.2031 Q996.8438,450.625 996.25,450.3594 Q995.6563,450.0781 995.0313,450.0781 Q993.6875,450.0781 993,451.1563 Q992.3125,452.2188 992.3125,454.3125 Q992.3125,456.4063 993,457.4844 Q993.6875,458.5469 995.0313,458.5469 Q995.6563,458.5469 996.25,458.2813 Q996.8438,458 997.4688,457.4219 L997.4688,460.1406 Z " fill="#000000"/><text fill="#000000" font-family="sans-serif" font-size="14" lengthAdjust="spacing" textLength="124.5098" x="1008.5" y="459.3467">TqdmProgressBar</text><line style="stroke:#181818;stroke-width:0.5;" x1="980.5" x2="1135.0098" y1="470.5" y2="470.5"/><line style="stroke:#181818;stroke-width:0.5;" x1="980.5" x2="1135.0098" y1="478.5" y2="478.5"/></g><!--class TrainKerasModel--><g class="entity" data-entity="TrainKerasModel" data-source-line="27" data-uid="ent0016" id="entity_TrainKerasModel"><rect fill="#F1F1F1" height="48" rx="2.5" ry="2.5" style="stroke:#181818;stroke-width:0.5;" width="149.1064" x="795.5" y="438.5"/><ellipse cx="810.5" cy="454.5" fill="#ADD1B2" rx="11" ry="11" style="stroke:#181818;stroke-width:1;"/><path d="M813.4688,460.1406 Q812.8906,460.4375 812.25,460.5781 Q811.6094,460.7344 810.9063,460.7344 Q808.4063,460.7344 807.0781,459.0938 Q805.7656,457.4375 805.7656,454.3125 Q805.7656,451.1875 807.0781,449.5313 Q808.4063,447.875 810.9063,447.875 Q811.6094,447.875 812.25,448.0313 Q812.9063,448.1875 813.4688,448.4844 L813.4688,451.2031 Q812.8438,450.625 812.25,450.3594 Q811.6563,450.0781 811.0313,450.0781 Q809.6875,450.0781 809,451.1563 Q808.3125,452.2188 808.3125,454.3125 Q808.3125,456.4063 809,457.4844 Q809.6875,458.5469 811.0313,458.5469 Q811.6563,458.5469 812.25,458.2813 Q812.8438,458 813.4688,457.4219 L813.4688,460.1406 Z " fill="#000000"/><text fill="#000000" font-family="sans-serif" font-size="14" lengthAdjust="spacing" textLength="117.1064" x="824.5" y="459.3467">TrainKerasModel</text><line style="stroke:#181818;stroke-width:0.5;" x1="796.5" x2="943.6064" y1="470.5" y2="470.5"/><line style="stroke:#181818;stroke-width:0.5;" x1="796.5" x2="943.6064" y1="478.5" y2="478.5"/></g><!--class LST1PredictionTool--><g class="entity" data-entity="LST1PredictionTool" data-source-line="29" data-uid="ent0017" id="entity_LST1PredictionTool"><rect fill="#F1F1F1" height="48" rx="2.5" ry="2.5" style="stroke:#181818;stroke-width:0.5;" width="165.8203" x="796" y="208.5"/><ellipse cx="811" cy="224.5" fill="#ADD1B2" rx="11" ry="11" style="stroke:#181818;stroke-width:1;"/><path d="M813.9688,230.1406 Q813.3906,230.4375 812.75,230.5781 Q812.1094,230.7344 811.4063,230.7344 Q808.9063,230.7344 807.5781,229.0938 Q806.2656,227.4375 806.2656,224.3125 Q806.2656,221.1875 807.5781,219.5313 Q808.9063,217.875 811.4063,217.875 Q812.1094,217.875 812.75,218.0313 Q813.4063,218.1875 813.9688,218.4844 L813.9688,221.2031 Q813.3438,220.625 812.75,220.3594 Q812.1563,220.0781 811.5313,220.0781 Q810.1875,220.0781 809.5,221.1563 Q808.8125,222.2188 808.8125,224.3125 Q808.8125,226.4063 809.5,227.4844 Q810.1875,228.5469 811.5313,228.5469 Q812.1563,228.5469 812.75,228.2813 Q813.3438,228 813.9688,227.4219 L813.9688,230.1406 Z " fill="#000000"/><text fill="#000000" font-family="sans-serif" font-size="14" lengthAdjust="spacing" textLength="133.8203" x="825" y="229.3467">LST1PredictionTool</text><line style="stroke:#181818;stroke-width:0.5;" x1="797" x2="960.8203" y1="240.5" y2="240.5"/><line style="stroke:#181818;stroke-width:0.5;" x1="797" x2="960.8203" y1="248.5" y2="248.5"/></g><!--class MonoPredictCTLearnModel--><g class="entity" data-entity="MonoPredictCTLearnModel" data-source-line="38" data-uid="ent0020" id="entity_MonoPredictCTLearnModel"><rect fill="#F1F1F1" height="48" rx="2.5" ry="2.5" style="stroke:#181818;stroke-width:0.5;" width="218.8398" x="258.5" y="438.5"/><ellipse cx="273.5" cy="454.5" fill="#ADD1B2" rx="11" ry="11" style="stroke:#181818;stroke-width:1;"/><path d="M276.4688,460.1406 Q275.8906,460.4375 275.25,460.5781 Q274.6094,460.7344 273.9063,460.7344 Q271.4063,460.7344 270.0781,459.0938 Q268.7656,457.4375 268.7656,454.3125 Q268.7656,451.1875 270.0781,449.5313 Q271.4063,447.875 273.9063,447.875 Q274.6094,447.875 275.25,448.0313 Q275.9063,448.1875 276.4688,448.4844 L276.4688,451.2031 Q275.8438,450.625 275.25,450.3594 Q274.6563,450.0781 274.0313,450.0781 Q272.6875,450.0781 272,451.1563 Q271.3125,452.2188 271.3125,454.3125 Q271.3125,456.4063 272,457.4844 Q272.6875,458.5469 274.0313,458.5469 Q274.6563,458.5469 275.25,458.2813 Q275.8438,458 276.4688,457.4219 L276.4688,460.1406 Z " fill="#000000"/><text fill="#000000" font-family="sans-serif" font-size="14" lengthAdjust="spacing" textLength="186.8398" x="287.5" y="459.3467">MonoPredictCTLearnModel</text><line style="stroke:#181818;stroke-width:0.5;" x1="259.5" x2="476.3398" y1="470.5" y2="470.5"/><line style="stroke:#181818;stroke-width:0.5;" x1="259.5" x2="476.3398" y1="478.5" y2="478.5"/></g><!--class PredictCTLearnModel--><g class="entity" data-entity="PredictCTLearnModel" data-source-line="40" data-uid="ent0022" id="entity_PredictCTLearnModel"><rect fill="#F1F1F1" height="48" rx="2.5" ry="2.5" style="stroke:#181818;stroke-width:0.5;" width="180.7568" x="406.5" y="208.5"/><ellipse cx="421.5" cy="224.5" fill="#ADD1B2" rx="11" ry="11" style="stroke:#181818;stroke-width:1;"/><path d="M424.4688,230.1406 Q423.8906,230.4375 423.25,230.5781 Q422.6094,230.7344 421.9063,230.7344 Q419.4063,230.7344 418.0781,229.0938 Q416.7656,227.4375 416.7656,224.3125 Q416.7656,221.1875 418.0781,219.5313 Q419.4063,217.875 421.9063,217.875 Q422.6094,217.875 423.25,218.0313 Q423.9063,218.1875 424.4688,218.4844 L424.4688,221.2031 Q423.8438,220.625 423.25,220.3594 Q422.6563,220.0781 422.0313,220.0781 Q420.6875,220.0781 420,221.1563 Q419.3125,222.2188 419.3125,224.3125 Q419.3125,226.4063 420,227.4844 Q420.6875,228.5469 422.0313,228.5469 Q422.6563,228.5469 423.25,228.2813 Q423.8438,228 424.4688,227.4219 L424.4688,230.1406 Z " fill="#000000"/><text fill="#000000" font-family="sans-serif" font-size="14" lengthAdjust="spacing" textLength="148.7568" x="435.5" y="229.3467">PredictCTLearnModel</text><line style="stroke:#181818;stroke-width:0.5;" x1="407.5" x2="586.2568" y1="240.5" y2="240.5"/><line style="stroke:#181818;stroke-width:0.5;" x1="407.5" x2="586.2568" y1="248.5" y2="248.5"/></g><!--class StereoPredictCTLearnModel--><g class="entity" data-entity="StereoPredictCTLearnModel" data-source-line="42" data-uid="ent0023" id="entity_StereoPredictCTLearnModel"><rect fill="#F1F1F1" height="48" rx="2.5" ry="2.5" style="stroke:#181818;stroke-width:0.5;" width="226.6807" x="512.5" y="438.5"/><ellipse cx="527.5" cy="454.5" fill="#ADD1B2" rx="11" ry="11" style="stroke:#181818;stroke-width:1;"/><path d="M530.4688,460.1406 Q529.8906,460.4375 529.25,460.5781 Q528.6094,460.7344 527.9063,460.7344 Q525.4063,460.7344 524.0781,459.0938 Q522.7656,457.4375 522.7656,454.3125 Q522.7656,451.1875 524.0781,449.5313 Q525.4063,447.875 527.9063,447.875 Q528.6094,447.875 529.25,448.0313 Q529.9063,448.1875 530.4688,448.4844 L530.4688,451.2031 Q529.8438,450.625 529.25,450.3594 Q528.6563,450.0781 528.0313,450.0781 Q526.6875,450.0781 526,451.1563 Q525.3125,452.2188 525.3125,454.3125 Q525.3125,456.4063 526,457.4844 Q526.6875,458.5469 528.0313,458.5469 Q528.6563,458.5469 529.25,458.2813 Q529.8438,458 530.4688,457.4219 L530.4688,460.1406 Z " fill="#000000"/><text fill="#000000" font-family="sans-serif" font-size="14" lengthAdjust="spacing" textLength="194.6807" x="541.5" y="459.3467">StereoPredictCTLearnModel</text><line style="stroke:#181818;stroke-width:0.5;" x1="513.5" x2="738.1807" y1="470.5" y2="470.5"/><line style="stroke:#181818;stroke-width:0.5;" x1="513.5" x2="738.1807" y1="478.5" y2="478.5"/></g><!--class TrainPyTorchModel--><g class="entity" data-entity="TrainPyTorchModel" data-source-line="44" data-uid="ent0024" id="entity_TrainPyTorchModel"><rect fill="#F1F1F1" height="48" rx="2.5" ry="2.5" style="stroke:#181818;stroke-width:0.5;" width="165.8545" x="1221" y="438.5"/><ellipse cx="1236" cy="454.5" fill="#ADD1B2" rx="11" ry="11" style="stroke:#181818;stroke-width:1;"/><path d="M1238.9688,460.1406 Q1238.3906,460.4375 1237.75,460.5781 Q1237.1094,460.7344 1236.4063,460.7344 Q1233.9063,460.7344 1232.5781,459.0938 Q1231.2656,457.4375 1231.2656,454.3125 Q1231.2656,451.1875 1232.5781,449.5313 Q1233.9063,447.875 1236.4063,447.875 Q1237.1094,447.875 1237.75,448.0313 Q1238.4063,448.1875 1238.9688,448.4844 L1238.9688,451.2031 Q1238.3438,450.625 1237.75,450.3594 Q1237.1563,450.0781 1236.5313,450.0781 Q1235.1875,450.0781 1234.5,451.1563 Q1233.8125,452.2188 1233.8125,454.3125 Q1233.8125,456.4063 1234.5,457.4844 Q1235.1875,458.5469 1236.5313,458.5469 Q1237.1563,458.5469 1237.75,458.2813 Q1238.3438,458 1238.9688,457.4219 L1238.9688,460.1406 Z " fill="#000000"/><text fill="#000000" font-family="sans-serif" font-size="14" lengthAdjust="spacing" textLength="133.8545" x="1250" y="459.3467">TrainPyTorchModel</text><line style="stroke:#181818;stroke-width:0.5;" x1="1222" x2="1385.8545" y1="470.5" y2="470.5"/><line style="stroke:#181818;stroke-width:0.5;" x1="1222" x2="1385.8545" y1="478.5" y2="478.5"/></g><!--class DLFrameWork--><g class="entity" data-entity="DLFrameWork" data-source-line="46" data-uid="ent0027" id="entity_DLFrameWork"><rect fill="#F1F1F1" height="48" rx="2.5" ry="2.5" style="stroke:#181818;stroke-width:0.5;" width="131.4902" x="70.5" y="208.5"/><ellipse cx="85.5" cy="224.5" fill="#ADD1B2" rx="11" ry="11" style="stroke:#181818;stroke-width:1;"/><path d="M88.4688,230.1406 Q87.8906,230.4375 87.25,230.5781 Q86.6094,230.7344 85.9063,230.7344 Q83.4063,230.7344 82.0781,229.0938 Q80.7656,227.4375 80.7656,224.3125 Q80.7656,221.1875 82.0781,219.5313 Q83.4063,217.875 85.9063,217.875 Q86.6094,217.875 87.25,218.0313 Q87.9063,218.1875 88.4688,218.4844 L88.4688,221.2031 Q87.8438,220.625 87.25,220.3594 Q86.6563,220.0781 86.0313,220.0781 Q84.6875,220.0781 84,221.1563 Q83.3125,222.2188 83.3125,224.3125 Q83.3125,226.4063 84,227.4844 Q84.6875,228.5469 86.0313,228.5469 Q86.6563,228.5469 87.25,228.2813 Q87.8438,228 88.4688,227.4219 L88.4688,230.1406 Z " fill="#000000"/><text fill="#000000" font-family="sans-serif" font-size="14" lengthAdjust="spacing" textLength="99.4902" x="99.5" y="229.3467">DLFrameWork</text><line style="stroke:#181818;stroke-width:0.5;" x1="71.5" x2="200.9902" y1="240.5" y2="240.5"/><line style="stroke:#181818;stroke-width:0.5;" x1="71.5" x2="200.9902" y1="248.5" y2="248.5"/></g><!--reverse link TrainCTLearnModel to TrainKerasModel--><g class="link" data-entity-1="TrainCTLearnModel" data-entity-2="TrainKerasModel" data-source-line="48" data-uid="lnk29" id="link_TrainCTLearnModel_TrainKerasModel"><path codeLine="48" d="M1278.6237,271.4813 C1257.9137,301.2213 1228.04,337.12 1180,362 C1092.95,407.08 1052.76,358.47 962,395.5 C937.25,405.6 912.83,423.6 895.38,438.25" fill="none" id="TrainCTLearnModel-backto-TrainKerasModel" style="stroke:#181818;stroke-width:1;"/><polygon fill="none" points="1288.91,256.71,1273.6999,268.0526,1283.5475,274.9101,1288.91,256.71" style="stroke:#181818;stroke-width:1;"/></g><!--reverse link CTLearnModel to LoadedModel--><g class="link" data-entity-1="CTLearnModel" data-entity-2="LoadedModel" data-source-line="49" data-uid="lnk30" id="link_CTLearnModel_LoadedModel"><path codeLine="49" d="M1879,291.21 C1879,325.53 1879,357.77 1879,397.71" fill="none" id="CTLearnModel-backto-LoadedModel" style="stroke:#181818;stroke-width:1;"/><polygon fill="none" points="1879,273.21,1873,291.21,1885,291.21,1879,273.21" style="stroke:#181818;stroke-width:1;"/></g><!--reverse link PredictCTLearnModel to MonoPredictCTLearnModel--><g class="link" data-entity-1="PredictCTLearnModel" data-entity-2="MonoPredictCTLearnModel" data-source-line="50" data-uid="lnk31" id="link_PredictCTLearnModel_MonoPredictCTLearnModel"><path codeLine="50" d="M475.0575,272.2871 C450.3375,315.9871 405.87,394.58 381.11,438.32" fill="none" id="PredictCTLearnModel-backto-MonoPredictCTLearnModel" style="stroke:#181818;stroke-width:1;"/><polygon fill="none" points="483.92,256.62,469.8352,269.3329,480.2799,275.2412,483.92,256.62" style="stroke:#181818;stroke-width:1;"/></g><!--reverse link PredictCTLearnModel to StereoPredictCTLearnModel--><g class="link" data-entity-1="PredictCTLearnModel" data-entity-2="StereoPredictCTLearnModel" data-source-line="51" data-uid="lnk32" id="link_PredictCTLearnModel_StereoPredictCTLearnModel"><path codeLine="51" d="M518.9425,272.2871 C543.6625,315.9871 588.13,394.58 612.89,438.32" fill="none" id="PredictCTLearnModel-backto-StereoPredictCTLearnModel" style="stroke:#181818;stroke-width:1;"/><polygon fill="none" points="510.08,256.62,513.7201,275.2412,524.1648,269.3329,510.08,256.62" style="stroke:#181818;stroke-width:1;"/></g><!--reverse link TrainCTLearnModel to TrainPyTorchModel--><g class="link" data-entity-1="TrainCTLearnModel" data-entity-2="TrainPyTorchModel" data-source-line="52" data-uid="lnk33" id="link_TrainCTLearnModel_TrainPyTorchModel"><path codeLine="52" d="M1304,274.62 C1304,318.32 1304,394.58 1304,438.32" fill="none" id="TrainCTLearnModel-backto-TrainPyTorchModel" style="stroke:#181818;stroke-width:1;"/><polygon fill="none" points="1304,256.62,1298,274.62,1310,274.62,1304,256.62" style="stroke:#181818;stroke-width:1;"/></g><text fill="#888888" font-family="sans-serif" font-size="10" lengthAdjust="spacing" textLength="68.4961" x="954.2461" y="606.2822">Generated by</text><text fill="#888888" font-family="sans-serif" font-size="10" font-style="italic" lengthAdjust="spacing" textLength="43.833" x="1025.9209" y="606.2822">py2puml</text><!--SRC=[hPJBRjim44Nt-Whs0o8ZMHhTj75VYD8Aje2YAs94JMn2VAZa68MQ-jzBIgwbk6fI1Ta8d4lDy0xdIAyQ1riDRE_nao5q6Yi9X3c86hResHqeZqaY57ZF12a4Pr9X7QRQLgZIwoABqcqCs7t2612X8MdDadss1YUKmrGrPQ52bwwo5H1aNT2LwuKrHk5KKPfA2lIdcC3NGrG2YHttyYUU90UciffxnEgaUGezSaA5NjW6kTInuM7REk9bosMu5UCbjQFJcprnluC6PshddPErogSbUEJaG1hUtsaHrsSNUqZGxFLPvZ7YSIjzxq3Z3-lgecsmkxkRT-itcoMxPFUXLvBY4BJyM_5bVVrnoQu6TTfMZGvysllgrd_SVQzqxkpMeVTlmNNUPkL7vIOAGszJ-OqBA0hYsQQuJECZxuK0KX5UcCWROTaHL0rKTkg8456NOSaVolt05BGZr9JTIXge62SyRhltSMkDFVh-Qw1FPpy_SnC-PPntSalMYTrnOCTeFBAyBQBqU9KnngkiG_9hGB9_VoxrhtzTN3mFgkIfFzM3qjFS97CdCs7tls1u-OF-EVqNcS4iKf8xQuCRzW5Dc0vXnSgMBHPDUzNijLeiVWC0]--></g></svg>